<?xml version="1.0" standalone="no"?>
<!DOCTYPE svg PUBLIC "-//W3C//DTD SVG 20010904//EN"
 "http://www.w3.org/TR/2001/REC-SVG-20010904/DTD/svg10.dtd">
<svg version="1.0" xmlns="http://www.w3.org/2000/svg"
 width="500.000000pt" height="500.000000pt" viewBox="0 0 500.000000 500.000000"
 preserveAspectRatio="xMidYMid meet">
<metadata>
Created by potrace 1.11, written by Peter Selinger 2001-2013
</metadata>
<g transform="translate(0.000000,500.000000) scale(0.100000,-0.100000)"
fill="#000000" stroke="none">
<path d="M650 4217 c0 -48 72 -170 135 -231 16 -16 29 -34 27 -40 -2 -6 -1 -8
3 -5 3 4 49 -15 102 -42 53 -27 104 -49 113 -49 9 0 20 -4 26 -10 5 -5 23 -10
40 -12 17 -1 35 -7 42 -14 8 -9 1 -13 -26 -17 -60 -10 -71 -13 -78 -20 -4 -4
-13 -7 -20 -7 -7 0 -25 -5 -41 -12 -15 -6 -31 -11 -34 -10 -4 1 -19 -10 -33
-23 -34 -32 -79 -55 -105 -55 -11 0 -78 -29 -149 -65 -205 -104 -263 -113
-369 -60 -55 29 -53 28 -53 15 0 -18 67 -76 118 -103 27 -14 71 -29 98 -34 48
-9 176 -8 242 0 17 2 32 2 32 -2 0 -3 -19 -19 -41 -36 -22 -16 -66 -56 -97
-89 -32 -32 -64 -66 -73 -75 -35 -35 -147 -273 -164 -346 -4 -17 -24 -68 -45
-115 -20 -47 -51 -119 -69 -160 -35 -84 -100 -160 -154 -180 -79 -29 -82 -31
-67 -40 8 -5 19 -6 25 -2 5 4 21 7 35 8 14 0 30 3 35 6 6 3 24 8 40 12 39 10
148 58 156 69 4 5 13 6 20 2 8 -5 11 -5 7 0 -4 4 21 26 55 48 34 23 68 47 75
54 7 7 26 20 42 30 17 9 30 21 30 25 0 4 7 8 15 8 8 0 15 3 15 8 0 4 9 13 21
20 20 13 21 12 14 -20 -4 -18 -11 -35 -15 -38 -4 -3 -7 -12 -8 -20 0 -18 -10
-85 -12 -85 -2 0 -8 -32 -14 -70 -3 -16 -7 -39 -9 -50 -3 -11 -8 -40 -12 -65
-4 -25 -9 -54 -11 -65 -2 -11 -7 -33 -9 -50 -8 -46 -65 -155 -81 -155 -8 0
-14 -6 -14 -14 0 -8 -9 -18 -20 -21 -11 -3 -20 -11 -20 -17 0 -5 -7 -7 -16 -4
-8 3 -13 2 -10 -3 3 -5 -8 -14 -24 -21 -17 -7 -29 -15 -26 -17 9 -10 66 -9 66
1 0 5 3 6 6 3 4 -4 20 3 35 14 16 11 29 17 29 14 0 -4 6 0 14 7 8 7 34 29 59
48 25 19 51 45 58 58 9 16 19 22 32 18 15 -3 17 -2 9 6 -8 8 -2 24 21 57 18
25 34 48 37 51 3 3 14 22 25 43 11 20 22 37 26 37 3 0 6 -37 6 -82 1 -181 27
-282 104 -396 27 -41 49 -80 49 -88 0 -17 81 -183 120 -246 33 -54 60 -127 60
-165 0 -21 3 -23 14 -14 15 12 27 111 13 111 -4 0 -6 3 -5 7 3 12 -24 136 -32
148 -10 14 -48 161 -55 210 -23 169 -23 363 0 435 3 10 8 29 11 42 15 66 44
157 52 162 4 2 8 -42 8 -97 1 -56 4 -118 8 -137 3 -19 8 -51 10 -70 7 -47 9
-55 49 -200 69 -245 89 -341 89 -425 -1 -110 -7 -156 -22 -185 -7 -14 -13 -27
-12 -30 0 -3 -4 -24 -9 -46 -10 -40 -18 -48 -109 -125 -31 -26 -9 -15 49 24
77 52 134 116 170 192 13 28 28 58 33 69 22 44 59 173 61 214 1 12 3 22 7 22
6 0 8 46 8 220 1 135 -1 167 -13 290 -15 162 -20 252 -15 305 1 11 7 1 15 -25
8 -24 13 -46 11 -47 -11 -11 77 -230 116 -289 58 -86 193 -227 239 -248 19 -9
48 -25 66 -35 17 -11 49 -25 71 -32 77 -23 95 -47 101 -136 1 -6 13 -26 28
-43 25 -31 26 -32 10 -63 -9 -18 -30 -48 -46 -67 -17 -19 -32 -48 -35 -63 l-5
-29 26 26 c14 14 30 26 35 26 16 0 100 -84 109 -109 12 -30 -4 -81 -34 -108
-12 -11 -43 -27 -69 -37 -33 -12 -52 -26 -62 -47 l-15 -30 32 19 c18 11 50 22
72 25 22 4 54 11 72 17 30 11 87 9 143 -4 14 -3 41 -9 60 -12 19 -4 44 -13 55
-20 11 -8 46 -14 82 -14 34 0 73 -4 87 -10 20 -7 26 -6 26 5 0 7 -4 17 -10 20
-21 13 -9 22 32 23 23 1 45 -3 49 -9 3 -6 8 -2 12 10 3 11 2 20 -2 19 -3 -1
-17 4 -30 11 -14 8 -41 16 -60 18 -20 3 -52 12 -71 20 -19 8 -62 16 -94 19
-33 2 -67 10 -75 18 -9 7 -39 19 -67 25 -45 11 -52 16 -64 49 -7 20 -35 58
-62 83 -30 28 -47 51 -43 60 5 13 26 29 98 73 16 10 37 36 47 59 17 40 19 40
21 15 4 -57 18 -136 26 -151 7 -12 32 24 33 46 0 15 9 17 60 16 33 -1 60 -6
60 -11 0 -5 5 -6 10 -3 6 4 30 -3 54 -15 42 -20 44 -22 35 -52 -10 -36 -6 -31
-46 -52 -32 -16 -35 -21 -35 -51 0 -43 12 -47 32 -11 8 15 25 27 46 31 18 3
37 13 42 21 24 43 107 8 118 -51 1 -5 3 -14 4 -20 1 -5 1 -24 0 -42 -1 -22 7
-43 26 -67 30 -38 45 -32 37 13 -7 43 -10 105 -5 119 6 19 26 -1 47 -48 10
-22 25 -40 34 -41 9 0 25 -3 36 -5 11 -3 29 -6 40 -7 11 -1 26 -8 34 -15 11
-10 16 -11 21 -2 14 23 -2 49 -43 65 -48 19 -97 58 -115 91 -12 23 -11 24 17
24 16 0 42 -5 58 -11 15 -6 37 -12 48 -14 11 -1 28 -5 38 -10 10 -4 21 -5 24
-1 12 12 -21 57 -46 62 -14 3 -37 10 -51 15 -14 5 -51 11 -84 14 -53 5 -139
42 -156 67 -4 4 -24 10 -45 13 -56 8 -65 10 -109 29 -22 10 -55 20 -73 23 -18
3 -33 9 -33 13 0 3 13 21 29 39 17 19 31 45 33 60 2 14 5 25 8 23 10 -7 132
60 159 86 15 15 43 50 62 77 19 28 37 52 40 55 8 7 29 70 23 70 -3 0 0 10 7
21 6 12 15 54 18 93 l8 71 17 -38 c9 -21 14 -43 11 -50 -4 -7 1 -3 10 8 13 17
15 36 11 115 -8 132 -21 184 -65 265 -3 6 7 2 23 -8 36 -24 42 -17 22 25 -16
33 -91 118 -105 118 -9 0 -51 73 -51 89 0 7 8 11 18 10 53 -5 68 1 84 36 8 19
12 35 7 35 -5 0 -9 6 -9 13 0 8 -9 22 -20 32 -11 10 -20 24 -20 32 0 7 -4 13
-10 13 -5 0 -14 9 -20 20 -12 23 -21 109 -12 111 4 1 22 2 39 3 18 1 38 7 45
14 28 28 137 -1 124 -34 -7 -18 11 -28 21 -12 13 22 17 50 11 78 -5 22 -41 80
-50 80 -4 0 -10 17 -14 38 -3 20 -17 54 -30 75 l-24 37 24 12 c26 11 24 12 94
-38 19 -14 28 -15 67 -4 25 7 45 17 45 21 0 5 9 9 20 9 11 0 20 5 20 11 0 6 6
9 13 6 8 -3 13 9 15 37 3 40 9 81 12 81 1 0 3 7 5 15 1 8 4 22 6 30 2 8 -3 15
-11 15 -8 0 -20 4 -27 8 -6 4 -15 2 -19 -4 -4 -8 -3 -9 4 -5 19 11 14 -1 -10
-28 -38 -41 -49 -56 -41 -56 4 0 0 -5 -10 -11 -14 -8 -22 -8 -30 1 -9 10 -8
11 7 6 16 -5 17 -4 7 8 -10 12 -9 18 8 33 12 9 21 24 21 33 0 12 2 12 9 2 6
-11 9 -9 14 7 3 12 0 19 -7 18 -6 -1 -10 6 -10 15 1 10 -1 17 -5 16 -3 -1 -19
5 -36 12 -35 15 -49 19 -92 22 -21 1 -35 8 -38 19 -3 10 -19 23 -35 30 -16 8
-26 17 -24 21 3 4 -1 9 -8 9 -7 1 -28 3 -45 5 -39 4 -41 -4 -10 -38 41 -46 47
-64 32 -84 -13 -17 -14 -17 -15 -2 0 27 -47 75 -75 77 -14 1 -31 2 -37 2 -19
2 -73 -10 -102 -21 -17 -6 -35 -6 -52 0 -36 14 -36 13 -19 -20 9 -16 20 -30
25 -30 6 0 10 -7 10 -15 0 -8 3 -14 8 -14 17 3 32 -2 32 -10 0 -15 -52 -2 -68
17 -7 9 -11 11 -7 5 3 -7 4 -13 1 -13 -3 0 -12 14 -21 30 -9 17 -20 30 -26 30
-6 0 -8 -4 -4 -9 3 -5 1 -12 -4 -15 -10 -7 -9 -25 2 -43 5 -7 6 -17 3 -22 -3
-5 1 -11 9 -15 8 -3 15 -11 15 -17 0 -15 51 -59 70 -59 53 -2 107 -14 120 -26
13 -12 13 -14 0 -14 -12 0 -13 -2 -2 -9 10 -6 6 -10 -15 -15 -15 -4 -30 -7
-32 -6 -2 1 -7 -2 -10 -7 -3 -4 -28 -19 -56 -33 -27 -14 -51 -28 -53 -32 -2
-5 -10 -8 -18 -8 -8 0 -14 -5 -14 -11 0 -5 -4 -7 -10 -4 -5 3 -10 2 -10 -4 0
-5 -9 -13 -20 -16 -11 -4 -18 -9 -16 -13 2 -4 -12 -17 -33 -30 -37 -24 -90
-85 -120 -138 -9 -16 -19 -31 -24 -32 -4 -2 -5 -8 -1 -13 3 -5 1 -9 -4 -9 -5
0 -9 -6 -10 -12 -1 -17 -35 -111 -42 -118 -3 -3 -5 -12 -5 -20 1 -8 -1 -19 -4
-25 -3 -5 -7 -19 -9 -30 -5 -29 -10 -50 -12 -50 -1 0 -3 -9 -5 -20 -7 -48 -15
-77 -29 -107 -21 -42 -20 -46 8 -41 22 5 24 2 19 -18 -10 -43 -51 -74 -104
-81 -13 -2 -28 -6 -34 -9 -27 -14 -114 0 -170 27 -73 35 -96 59 -137 141 -24
50 -31 76 -31 125 1 78 9 110 45 171 15 26 28 51 28 55 0 4 20 27 46 52 81 80
94 95 94 103 0 4 6 5 13 1 6 -4 9 -4 5 1 -9 9 10 47 20 41 4 -2 8 7 9 21 0 14
5 28 11 32 5 3 15 24 22 46 7 22 15 44 18 49 3 5 4 39 2 75 -4 100 -6 116 -13
128 -4 5 -8 24 -9 42 -1 17 -6 31 -10 31 -4 0 -8 8 -8 18 0 10 -4 22 -9 28 -6
5 -12 20 -14 34 -4 27 -11 47 -34 98 -14 31 -23 67 -27 102 -1 9 -4 20 -8 25
-14 25 -7 85 12 103 20 19 20 19 0 37 -11 10 -20 14 -20 8 0 -5 -11 -16 -25
-23 -13 -7 -22 -17 -19 -21 2 -4 0 -10 -6 -14 -6 -4 -8 -11 -5 -16 4 -5 2 -9
-4 -9 -5 0 -9 -17 -7 -38 2 -21 0 -46 -3 -55 -6 -17 -9 -16 -43 6 -48 33 -157
85 -190 91 -15 2 -32 7 -36 10 -5 3 -25 6 -45 8 -21 1 -37 5 -37 8 0 3 -12 5
-27 6 -16 0 -66 4 -113 8 -47 4 -102 8 -122 9 -21 1 -38 4 -38 7 0 3 -19 6
-43 7 -23 0 -53 4 -67 8 -14 4 -31 7 -37 7 -7 1 -13 5 -13 10 0 4 -3 7 -7 6
-15 -5 -73 24 -67 33 3 5 -1 6 -9 4 -7 -3 -25 5 -40 19 -15 14 -27 23 -27 21
0 -9 -42 37 -66 72 -14 21 -24 29 -24 20z"/>
<path d="M4340 3480 c-11 -11 -20 -26 -20 -34 0 -21 -38 -45 -61 -39 -11 3
-27 16 -35 28 -14 21 -49 42 -69 40 -44 -4 -85 -29 -100 -62 -22 -45 -23 -141
-2 -174 8 -13 14 -34 13 -46 -3 -30 15 -36 103 -37 74 -1 75 -1 83 -31 4 -16
7 -50 7 -75 -1 -25 1 -59 5 -76 7 -29 6 -30 -36 -30 -50 0 -152 -10 -188 -19
-14 -3 -62 -8 -108 -10 -78 -5 -84 -3 -104 20 -14 16 -29 23 -44 21 -32 -6
-131 -36 -189 -57 -106 -39 -347 -140 -355 -149 -3 -3 -27 -16 -54 -30 -87
-44 -151 -128 -136 -181 5 -16 7 -29 5 -29 -2 0 12 -28 31 -61 19 -34 39 -83
45 -108 23 -102 67 -137 172 -136 65 1 80 -7 58 -30 -5 -6 -11 -28 -14 -50 -2
-22 -9 -51 -14 -65 -9 -24 -9 -75 0 -130 6 -34 38 -101 60 -125 10 -11 26 -33
34 -50 30 -56 68 -96 126 -132 57 -34 61 -35 130 -30 100 8 185 27 212 47 6 4
23 10 39 14 15 4 47 15 70 26 22 10 52 22 66 26 22 6 196 112 272 165 15 10
30 19 33 19 11 0 70 45 120 92 27 25 61 56 75 68 79 68 134 118 153 139 12 14
31 34 43 45 24 24 94 127 118 173 9 18 18 47 19 65 4 45 -43 128 -72 128 -6 0
-12 6 -12 13 -1 6 -3 23 -4 37 -7 76 -17 115 -51 200 -21 52 -52 122 -70 155
-30 56 -34 60 -73 63 -30 3 -55 -4 -98 -27 -32 -16 -69 -33 -83 -37 -14 -3
-28 -11 -31 -17 -16 -24 -37 2 -37 45 -1 50 -6 78 -22 108 -6 12 -9 25 -5 28
3 4 37 8 76 10 64 4 71 7 84 31 16 32 17 221 1 243 -38 50 -129 65 -166 28z"/>
<path d="M2975 3440 c-3 -5 -1 -10 4 -10 6 0 11 5 11 10 0 6 -2 10 -4 10 -3 0
-8 -4 -11 -10z"/>
<path d="M4985 10 c-3 -5 -1 -10 4 -10 6 0 11 5 11 10 0 6 -2 10 -4 10 -3 0
-8 -4 -11 -10z"/>
</g>
</svg>
